<svg xmlns="http://www.w3.org/2000/svg" viewBox="0 0 600 800" preserveAspectRatio="xMidYMid slice"><!-- placeholder: replace with a real photo --><defs><linearGradient id="s" x1="0" y1="0" x2="0" y2="1"><stop offset="0" stop-color="#f6dcc4"/><stop offset=".55" stop-color="#e3a58f"/><stop offset="1" stop-color="#8e3b48"/></linearGradient><radialGradient id="sun"><stop offset="0" stop-color="#fff4dc"/><stop offset=".6" stop-color="#fbe0b8" stop-opacity=".8"/><stop offset="1" stop-color="#fbe0b8" stop-opacity="0"/></radialGradient></defs><rect width="600" height="800" fill="url(#s)"/><circle cx="300" cy="430" r="190" fill="url(#sun)"/><path d="M0 560 C120 500 220 540 320 510 S520 470 600 520 V800 H0Z" fill="#b55f68" opacity=".75"/><path d="M0 640 C140 590 260 640 380 600 S560 580 600 600 V800 H0Z" fill="#7a2a38"/><path d="M0 720 C160 690 300 730 600 690 V800 H0Z" fill="#4d1422"/><g fill="#3a0f1a"><path d="M268 640c0-40 10-78 20-92 6-10 16-8 20 2 8 18 10 54 10 90z"/><circle cx="296" cy="532" r="13"/><path d="M318 640c2-34 10-62 20-74 6-7 15-5 18 4 5 16 6 44 6 70z"/><circle cx="342" cy="552" r="11"/></g></svg>